<?xml version="1.0" encoding="utf-8"?>
<?xml-stylesheet type="text/xsl" href="rss1.xsl"?>
<rss version="2.0" xmlns:atom="http://www.w3.org/2005/Atom" xmlns:content="http://purl.org/rss/1.0/modules/content/" xmlns:dc="http://purl.org/dc/elements/1.1/" xmlns:media="http://search.yahoo.com/mrss/">
<channel>
 <title>Getty</title>
 <link>http://www.gettyimg.com/</link>
 <atom:link href="http://www.gettyimg.com/" rel="self" type="application/rss+xml" />

 
                <item>
                <title><![CDATA[【Cinema Center】SERIES - Monster High - Season 2 - 1080p NICK WEB-DL]]></title>
                <link><![CDATA[https://sharemania.us/threads/monster-high-season-2-1080p-nick-web-dl.242438/]]></link>
                <description><![CDATA[<article>
<blockquote class="messageText SelectQuoteContainer ugc baseHtml">
<img src="https://assets.nick.com/uri/mgid:arc:imageassetref:shared.nick.us:d1e05336-3239-4792-a2ee-61cff4195681?quality=0.7&amp;gen=ntrn&amp;legacyStatusCode=true" class="bbCodeImage LbImage" alt="[​IMG]" data-url="https://assets.nick.com/uri/mgid:arc:imageassetref:shared.nick.us:d1e05336-3239-4792-a2ee-61cff4195681?quality=0.7&amp;gen=ntrn&amp;legacyStatusCode=true" style=""><br>
<div class="ToggleTriggerAnchor bbCodeSpoilerContainer">
<button type="button" class="button bbCodeSpoilerButton ToggleTrigger Tooltip JsOnly" data-target="> .SpoilerTarget"><span>Spoiler: <span class="SpoilerTitle">MediaInfo</span></span></button>
<div class="SpoilerTarget bbCodeSpoilerText">Format : MPEG-4<br>
Format profile : Base Media<br>
Codec ID : isom (isom/iso2/avc1/mp41)<br>
Overall bit rate : 4 513 kb/s<br>
Frame rate : 23.976 FPS<br>
Writing application : Lavf60.16.100<br>
<br>
Video<br>
ID : 1<br>
Format : AVC<br>
Format/Info : Advanced Video Codec<br>
Format profile : High@L4<br>
Format settings : CABAC / 4 Ref Frames<br>
Format settings, CABAC : Yes<br>
Format settings, Reference frames : 4 frames<br>
Codec ID : avc1<br>
Codec ID/Info : Advanced Video Coding<br>
Bit rate : 4 378 kb/s<br>
Width : 1 920 pixels<br>
Height : 1 080 pixels<br>
Display aspect ratio : 16:9<br>
Frame rate mode : Variable<br>
Frame rate : 23.976 FPS<br>
Minimum frame rate : 23.579 FPS<br>
Maximum frame rate : 23.981 FPS<br>
Color space : YUV<br>
Chroma subsampling : 4:2:0<br>
Bit depth : 8 bits<br>
Scan type : Progressive<br>
Bits/(Pixel*Frame) : 0.088<br>
mdhd_Duration : 1350017<br>
Codec configuration box : avcC<br>
<br>
Audio<br>
ID : 2<br>
Format : AAC LC<br>
Format/Info : Advanced Audio Codec Low Complexity<br>
Codec ID : mp4a-40-2<br>
Bit rate mode : Constant<br>
Bit rate : 129 kb/s<br>
Channel(s) : 2 channels<br>
Channel layout : L R<br>
Sampling rate : 48.0 kHz<br>
Frame rate : 46.875 FPS (1024 SPF)<br>
Compression mode : Lossy<br>
Stream size : 20.7 MiB (3%)<br>
Default : Yes<br>
Alternate group : 1</div>
</div><br>
<b><i>Sinopsis: </i></b><br>
<i>Premise. The series follows Frankie Stein, Draculaura, and Clawdeen Wolf, the respective children of Frankenstein, Dracula and a Werewolf, as well as other children of famous mythical monsters they navigate the hilarity of high school in the hallowed halls of Monster High.</i><br>
<br>
<br>
<b>
<div class="bbCodeBlock bbCodeVfcHH HiddenContent">
<div class="attribution type">Hidden Content:</div>
<blockquote>You must reply before you can see the hidden data contained here.</blockquote>
</div></b><br>
<br>
<b>Note: There are still a couple of episodes to be aired of season 2 that still have no date (maybe june), as soon as they put it I will put it.</b>
<div class="messageTextEndMarker">&nbsp;</div>
</blockquote>
</article>]]></description>
                <author><![CDATA[Lererle]]></author>
                </item>

                
                <item>
                <title><![CDATA[【MASTER &amp; MASTER RIP】MASTER - ZHU - YOURS [Master 4K]]]></title>
                <link><![CDATA[https://sharemania.us/threads/zhu-yours-master-4k.242437/]]></link>
                <description><![CDATA[<article>
<blockquote class="messageText SelectQuoteContainer ugc baseHtml">
<div style="text-align: center"><img src="https://i.ibb.co/87sJ7Qt/20240418135732.gif" class="bbCodeImage LbImage" alt="[​IMG]" data-url="https://i.ibb.co/87sJ7Qt/20240418135732.gif" style=""><br>
​</div>
<div class="ToggleTriggerAnchor bbCodeSpoilerContainer">
<button type="button" class="button bbCodeSpoilerButton ToggleTrigger Tooltip JsOnly" data-target="> .SpoilerTarget"><span>Spoiler: <span class="SpoilerTitle">MASTER</span></span></button>
<div class="SpoilerTarget bbCodeSpoilerText">
<div class="bbCodeBlock bbCodeCode">
<div class="type">Code:</div>
<pre>General
Complete name                            : ZHU - YOURS.mp4
Format                                   : MPEG-4
Format profile                           : Base Media / Version 2
Codec ID                                 : mp42 (mp42/mp41/isom/avc1)
File size                                : 756 MiB
Duration                                 : 4 min 18 s
Overall bit rate mode                    : Variable
Overall bit rate                         : 24.5 Mb/s
Frame rate                               : 24.000 FPS
Encoded date                             : 2021-04-26 12:54:43 UTC
Tagged date                              : 2021-04-26 12:54:43 UTC

Video
ID                                       : 1
Format                                   : AVC
Format/Info                              : Advanced Video Codec
Format profile                           : High@L5.2
Format settings                          : CABAC / 5 Ref Frames
Format settings, CABAC                   : Yes
Format settings, Reference frames        : 5 frames
Codec ID                                 : avc1
Codec ID/Info                            : Advanced Video Coding
Duration                                 : 4 min 18 s
Bit rate                                 : 24.3 Mb/s
Width                                    : 3 840 pixels
Height                                   : 2 160 pixels
Display aspect ratio                     : 16:9
Frame rate mode                          : Constant
Frame rate                               : 24.000 FPS
Color space                              : YUV
Chroma subsampling                       : 4:2:0
Bit depth                                : 8 bits
Scan type                                : Progressive
Bits/(Pixel*Frame)                       : 0.122
Stream size                              : 748 MiB (99%)
Writing library                          : x264 core 161 r10 c347e7a
Encoding settings                        : cabac=1 / ref=5 / deblock=1:0:0 / analyse=0x3:0x113 / me=hex / subme=8 / psy=1 / psy_rd=1.00:0.00 / mixed_ref=1 / me_range=16 / chroma_me=1 / trellis=2 / 8x8dct=1 / cqm=0 / deadzone=21,11 / fast_pskip=1 / chroma_qp_offset=-2 / threads=48 / lookahead_threads=8 / sliced_threads=0 / nr=0 / decimate=1 / interlaced=0 / bluray_compat=0 / stitchable=1 / constrained_intra=0 / bframes=3 / b_pyramid=2 / b_adapt=2 / b_bias=0 / direct=3 / weightb=1 / open_gop=0 / weightp=2 / keyint=infinite / keyint_min=24 / scenecut=40 / intra_refresh=0 / rc_lookahead=50 / rc=crf / mbtree=1 / crf=20.0 / qcomp=0.60 / qpmin=5 / qpmax=69 / qpstep=4 / vbv_maxrate=24200 / vbv_bufsize=66000 / crf_max=0.0 / nal_hrd=none / filler=0 / ip_ratio=1.40 / aq=1:1.00
Encoded date                             : 2021-04-26 12:54:43 UTC
Tagged date                              : 2021-04-26 12:54:43 UTC
Color range                              : Limited
Color primaries                          : BT.709
Transfer characteristics                 : BT.709
Matrix coefficients                      : BT.709
Codec configuration box                  : avcC

Audio
ID                                       : 2
Format                                   : AAC LC
Format/Info                              : Advanced Audio Codec Low Complexity
Codec ID                                 : 2 / 40 / mp4a-40-2
Duration                                 : 4 min 18 s
Bit rate mode                            : Variable
Bit rate                                 : 253 kb/s
Channel(s)                               : 2 channels
Channel layout                           : L R
Sampling rate                            : 48.0 kHz
Frame rate                               : 46.875 FPS (1024 SPF)
Compression mode                         : Lossy
Stream size                              : 7.81 MiB (1%)
Encoded date                             : 2021-04-26 12:54:43 UTC
Tagged date                              : 2021-04-26 12:54:43 UTC

</pre>
</div><div style="text-align: center">​</div></div>
</div><div style="text-align: center"><br>
<div class="bbCodeBlock bbCodeVfcHH HiddenContent">
<div class="attribution type">Hidden Content:</div>
<blockquote>You must reply before you can see the hidden data contained here.</blockquote>
</div></div>
<div class="messageTextEndMarker">&nbsp;</div>
</blockquote>
</article>]]></description>
                <author><![CDATA[fstambuk]]></author>
                </item>

                
                <item>
                <title><![CDATA[【Actresses】India Hair - Staying Vertical (2016)1080p]]></title>
                <link><![CDATA[https://sharemania.us/threads/india-hair-staying-vertical-2016-1080p.242440/]]></link>
                <description><![CDATA[<article>
<blockquote class="messageText SelectQuoteContainer ugc baseHtml">
India Hair - Staying Vertical (2016)1080p<br>
<br>
<a href="https://imgbox.com/a9k1rPg1" target="_blank" class="externalLink" rel="nofollow"><img src="https://thumbs2.imgbox.com/b5/81/a9k1rPg1_t.jpg" class="bbCodeImage LbImage" alt="[​IMG]" data-url="https://thumbs2.imgbox.com/b5/81/a9k1rPg1_t.jpg"></a> <a href="https://imgbox.com/mHDi75pp" target="_blank" class="externalLink" rel="nofollow"><img src="https://thumbs2.imgbox.com/34/e8/mHDi75pp_t.jpg" class="bbCodeImage LbImage" alt="[​IMG]" data-url="https://thumbs2.imgbox.com/34/e8/mHDi75pp_t.jpg"></a> <a href="https://imgbox.com/NqgppaKF" target="_blank" class="externalLink" rel="nofollow"><img src="https://thumbs2.imgbox.com/ec/04/NqgppaKF_t.jpg" class="bbCodeImage LbImage" alt="[​IMG]" data-url="https://thumbs2.imgbox.com/ec/04/NqgppaKF_t.jpg"></a> <a href="https://imgbox.com/OwuIY6kn" target="_blank" class="externalLink" rel="nofollow"><img src="https://thumbs2.imgbox.com/f5/08/OwuIY6kn_t.jpg" class="bbCodeImage LbImage" alt="[​IMG]" data-url="https://thumbs2.imgbox.com/f5/08/OwuIY6kn_t.jpg"></a> <a href="https://imgbox.com/dcCem9Vl" target="_blank" class="externalLink" rel="nofollow"><img src="https://thumbs2.imgbox.com/36/f9/dcCem9Vl_t.jpg" class="bbCodeImage LbImage" alt="[​IMG]" data-url="https://thumbs2.imgbox.com/36/f9/dcCem9Vl_t.jpg"></a> <a href="https://imgbox.com/iftzWE2Y" target="_blank" class="externalLink" rel="nofollow"><img src="https://thumbs2.imgbox.com/c5/93/iftzWE2Y_t.jpg" class="bbCodeImage LbImage" alt="[​IMG]" data-url="https://thumbs2.imgbox.com/c5/93/iftzWE2Y_t.jpg"></a><br>
Duration: 0:01:26 Resolution: 1920x1080 Format: mp4 Size: 46.2 MB<br>
<a href="https://filejoker.net/2ps0i86qnndm" target="_blank" class="externalLink" rel="nofollow">https://filejoker.net/2ps0i86qnndm</a>
<div class="messageTextEndMarker">&nbsp;</div>
</blockquote>
</article>]]></description>
                <author><![CDATA[piqeros]]></author>
                </item>

                
                <item>
                <title><![CDATA[【MASTER &amp; MASTER RIP】MASTER - Corinne Bailey Rae - He Will Follow You With His Eyes [Master 4K]]]></title>
                <link><![CDATA[https://sharemania.us/threads/corinne-bailey-rae-he-will-follow-you-with-his-eyes-master-4k.242439/]]></link>
                <description><![CDATA[<article>
<blockquote class="messageText SelectQuoteContainer ugc baseHtml">
<div style="text-align: center"><img src="https://i.ibb.co/kcXWXFv/20240418140237.gif" class="bbCodeImage LbImage" alt="[​IMG]" data-url="https://i.ibb.co/kcXWXFv/20240418140237.gif" style=""><br>
​</div>
<div class="ToggleTriggerAnchor bbCodeSpoilerContainer">
<button type="button" class="button bbCodeSpoilerButton ToggleTrigger Tooltip JsOnly" data-target="> .SpoilerTarget"><span>Spoiler: <span class="SpoilerTitle">MASTER</span></span></button>
<div class="SpoilerTarget bbCodeSpoilerText">
<div class="bbCodeBlock bbCodeCode">
<div class="type">Code:</div>
<pre>General
Complete name                            : Corinne Bailey Rae - He Will Follow You With His Eyes.mp4
Format                                   : MPEG-4
Format profile                           : Base Media / Version 2
Codec ID                                 : mp42 (mp42/mp41)
File size                                : 3.02 GiB
Duration                                 : 4 min 20 s
Overall bit rate mode                    : Variable
Overall bit rate                         : 99.6 Mb/s
Frame rate                               : 23.976 FPS
Encoded date                             : 2024-03-17 18:26:27 UTC
Tagged date                              : 2024-03-17 18:28:02 UTC
TIM                                      : 00:00:00:00
TSC                                      : 24000
TSZ                                      : 1001

Video
ID                                       : 1
Format                                   : AVC
Format/Info                              : Advanced Video Codec
Format profile                           : Main@L5.1
Format settings                          : CABAC / 2 Ref Frames
Format settings, CABAC                   : Yes
Format settings, Reference frames        : 2 frames
Format settings, GOP                     : M=1, N=24
Codec ID                                 : avc1
Codec ID/Info                            : Advanced Video Coding
Duration                                 : 4 min 20 s
Bit rate                                 : 99.2 Mb/s
Width                                    : 3 840 pixels
Height                                   : 2 160 pixels
Display aspect ratio                     : 16:9
Frame rate mode                          : Constant
Frame rate                               : 23.976 (24000/1001) FPS
Color space                              : YUV
Chroma subsampling                       : 4:2:0
Bit depth                                : 8 bits
Scan type                                : Progressive
Bits/(Pixel*Frame)                       : 0.499
Stream size                              : 3.01 GiB (100%)
Language                                 : English
Encoded date                             : 2024-03-17 18:26:27 UTC
Tagged date                              : 2024-03-17 18:26:27 UTC
Color range                              : Limited
Color primaries                          : BT.709
Transfer characteristics                 : BT.709
Matrix coefficients                      : BT.709
Codec configuration box                  : avcC

Audio
ID                                       : 2
Format                                   : AAC LC
Format/Info                              : Advanced Audio Codec Low Complexity
Codec ID                                 : 2 / 40 / mp4a-40-2
Duration                                 : 4 min 20 s
Source duration                          : 4 min 20 s
Bit rate mode                            : Variable
Bit rate                                 : 317 kb/s
Maximum bit rate                         : 513 kb/s
Channel(s)                               : 2 channels
Channel layout                           : L R
Sampling rate                            : 48.0 kHz
Frame rate                               : 46.875 FPS (1024 SPF)
Compression mode                         : Lossy
Stream size                              : 9.87 MiB (0%)
Source stream size                       : 9.87 MiB (0%)
Language                                 : English
Encoded date                             : 2024-03-17 18:26:28 UTC
Tagged date                              : 2024-03-17 18:26:28 UTC

</pre>
</div><div style="text-align: center">​</div></div>
</div><div style="text-align: center"><br>
<div class="bbCodeBlock bbCodeVfcHH HiddenContent">
<div class="attribution type">Hidden Content:</div>
<blockquote>You must reply before you can see the hidden data contained here.</blockquote>
</div></div>
<div class="messageTextEndMarker">&nbsp;</div>
</blockquote>
</article>]]></description>
                <author><![CDATA[fstambuk]]></author>
                </item>

                
                <item>
                <title><![CDATA[【Requests】[REQ AUD] - BINI - Pantropiko Hi-Res (24/44.1)]]></title>
                <link><![CDATA[https://sharemania.us/threads/bini-pantropiko-hi-res-24-44-1.242436/]]></link>
                <description><![CDATA[<article>
<blockquote class="messageText SelectQuoteContainer ugc baseHtml">
hi does anyone have bini's pantropiko in hi res? here's the qobuz link<br>
<a href="https://www.qobuz.com/au-en/album/pantropiko-bini/qb3hz149b37yb" target="_blank" class="externalLink" rel="nofollow">https://www.qobuz.com/au-en/album/pantropiko-bini/qb3hz149b37yb</a>
<div class="messageTextEndMarker">&nbsp;</div>
</blockquote>
</article>]]></description>
                <author><![CDATA[lilandicho]]></author>
                </item>

                </channel></rss>